<svg width="1200" height="1200" viewBox="0 0 1200 1200" fill="none" xmlns="http://www.w3.org/2000/svg">
<path d="M451.031 1054.4C446.314 1055.04 444.129 1057.78 444.939 1062.43C445.417 1065.18 447.35 1067.08 450.242 1067.31C453.54 1067.56 455.959 1065.76 456.895 1062.75C458.16 1058.68 456.439 1055.86 451.031 1054.4Z" fill="#1A1A1A"/>
<path d="M489.119 1120.44C433.416 1118.76 379.316 1113.66 327.653 1093.42C291.23 1079.16 262.503 1056.24 242.897 1022.07C239.229 1015.67 239.266 1011.66 244.791 1006.18C296.691 954.666 348.251 902.814 400.03 851.182C404.773 846.453 407.066 842.531 404.502 835.154C399.049 819.463 414.436 803.271 431.14 807.311C439.198 809.26 443.562 806.737 448.76 801.502C527.768 721.928 434.621 816.651 513.805 737.252C521.074 729.963 525.7 736.561 526.525 742.167C528.709 757.008 526.525 785.857 526.525 801.503C526.525 810.978 526.525 826.922 526.525 835.154C526.525 849.353 526.525 872.486 526.525 898.469C526.525 949.301 526.525 922.328 526.525 947.933C526.525 965.53 526.525 972.092 526.525 997.944C526.525 1007.27 526.525 1016.21 526.525 1026.23C526.525 1036.24 526.525 1039.53 526.525 1046.59C526.525 1053.66 526.525 1059.8 526.525 1067.17C526.525 1074.54 526.525 1080.64 526.525 1089.56C526.525 1093.97 526.525 1097.69 526.525 1100.97C526.525 1126.63 525.505 1120.46 489.119 1120.44ZM486.459 795.574C486.459 791.506 486.459 787.438 486.459 781.891C473.694 794.415 462.38 805.501 451.086 816.607C448.686 818.968 449.196 821.707 449.682 824.752C451.968 839.098 442.451 852.877 428.102 851.936C417.187 851.22 412.221 856.699 406.238 862.923C400.608 868.781 395.124 874.812 389.134 880.283C383.625 885.315 381.851 891.106 381.921 898.469C382.255 933.894 382.273 969.324 382.104 1004.75C382.062 1013.41 382.636 1020.55 390.353 1027.06C399.228 1034.56 397.633 1047.82 389.041 1055.58C380.868 1062.96 368.556 1062.65 360.886 1054.87C352.849 1046.71 352.113 1033.26 361.033 1026.23C368.352 1020.46 369.316 1013.6 369.337 1005.72C369.425 972.889 369.456 940.061 369.434 907.233C369.433 905.52 370.383 903.257 367.357 902.055C360.604 908.597 352.914 914.455 347.423 922.679C348.643 924.167 349.413 925.178 350.257 926.124C361.923 939.205 361.374 949.18 347.717 960.703C343.801 964.008 343.746 967.976 343.725 972.092C343.566 1002.64 343.658 1033.2 343.406 1063.75C343.355 1069.94 345.705 1073.64 351.585 1075.18C363.196 1078.2 374.927 1080.84 386.397 1084.33C395.613 1087.13 397.882 1083.64 397.4 1075.04C396.989 1067.72 396.161 1060.18 401.973 1053.83C411.814 1043.07 411.3 1034.07 400.866 1023.19C392.832 1014.8 392.572 1000.94 400.305 993.235C408.389 985.186 422.189 985.596 430.06 994.12C437.738 1002.44 437.48 1016.5 428.251 1023.68C422.498 1028.15 421.18 1032.98 421.349 1039.53C421.495 1045.21 423.318 1051.86 417.891 1056.01C409.32 1062.56 409.694 1071.39 409.888 1080.64C410.009 1086.44 412.784 1089.1 417.962 1089.56C435.745 1091.11 453.565 1092.27 471.333 1093.97C479.512 1094.75 481.23 1090.87 481.184 1083.69C480.942 1045.99 480.951 1008.29 481.02 970.586C481.029 965.704 479.694 962.328 475.735 958.938C465.606 950.265 465.097 936.428 473.813 927.905C481.71 920.184 494.818 920.367 502.896 928.311C511.05 936.331 510.464 950.23 500.724 958.565C496.161 962.47 494.929 966.617 494.94 972.092C495.019 1009.15 495.084 1046.2 494.841 1083.25C494.793 1090.71 496.442 1094.68 505.039 1094.65C514.042 1094.63 513.769 1089.33 513.765 1083.1C513.71 1012.9 513.752 942.693 513.697 872.486C513.694 869.73 514.734 866.599 511.98 864.192C509.124 864.539 507.609 866.796 505.809 868.579C491.493 882.76 477.334 897.105 462.823 911.084C457.979 915.751 456.122 920.806 456.162 927.467C456.361 961.268 456.286 995.072 456.087 1028.87C456.043 1036.24 456.758 1042.12 463.556 1047.41C472.334 1054.26 471.734 1068.74 464.03 1076.15C456.262 1083.62 442.05 1083.65 434.76 1076.21C426.833 1068.13 426.589 1053.46 435.57 1046.59C441.483 1042.08 442.328 1037.01 442.323 1030.64C442.296 995.884 442.591 961.128 442.314 926.375C442.245 917.626 444.643 910.92 451.076 904.786C470.359 886.398 489.104 867.448 508.266 848.931C512.085 845.241 513.838 841.381 513.805 836.105C513.653 811.729 513.771 787.352 513.702 762.975C513.697 760.917 514.604 758.313 511.51 757.008C502.905 762.238 498.345 769.143 499.145 780.051C500.046 792.335 499.018 804.748 499.417 817.085C499.635 823.816 497.407 828.725 492.646 833.407C471.328 854.375 450.834 876.214 428.913 896.52C417.61 906.99 410.353 917.679 413.005 933.502C413.372 935.688 412.927 938.043 412.656 940.296C412.226 943.886 410.67 946.365 406.515 946.418C401.971 946.477 399.919 943.939 399.712 939.866C399.414 934.03 399.629 928.169 399.385 922.328C398.982 912.709 401.994 905.226 409.412 898.293C429.586 879.437 448.212 858.89 468.819 840.548C482.373 828.484 489.668 815.482 486.459 795.574ZM330.592 1021.3C330.58 1007.32 329.671 993.271 330.825 979.392C331.84 967.181 327.817 958.937 317.237 953.453C303.206 962.966 301.346 986.741 313.755 997.944C321.994 1005.38 322.293 1019.51 314.387 1027.8C306.617 1035.95 293.427 1035.97 285.589 1027.84C277.435 1019.38 277.055 1004.97 286.272 998.426C294.328 992.706 294.006 986.157 292.707 977.908C287.71 979.993 285.154 983.88 282.019 986.999C261.076 1007.83 261.037 1007.92 279.752 1031.03C292.871 1047.22 309.573 1058.31 328.794 1065.81C329.661 1064.3 330.241 1063.76 330.247 1063.21C330.399 1049.89 330.49 1036.57 330.592 1021.3ZM435.001 824.318C431.436 820.164 427.162 818.617 422.249 821.619C417.874 824.292 416.415 828.589 418.203 833.298C420.099 838.291 424.495 839.611 429.316 838.414C436.158 836.714 437.202 831.734 435.001 824.318ZM292.94 1016.21C295.01 1020.12 297.88 1022.44 302.347 1020.04C305.769 1018.2 307.776 1015.19 306.639 1011.15C305.651 1007.64 302.82 1005.53 299.332 1005.87C294.245 1006.37 292.274 1009.91 292.94 1016.21ZM480.588 943.076C481.861 948.367 485.202 950.652 490.476 949.301C493.942 948.412 495.806 945.612 495.665 942.143C495.521 938.581 493.091 936.3 489.701 935.541C484.634 934.406 481.914 937.106 480.588 943.076ZM333.579 936.056C328.065 940.788 328.089 945.35 334.468 949.05C337.062 950.555 340.183 950.14 342.57 947.933C344.578 946.076 345.723 943.595 344.774 940.963C343.126 936.393 339.631 934.604 333.579 936.056ZM410.225 1002.75C407.435 1005.72 406.847 1009.09 409.151 1012.46C411.18 1015.43 414.295 1016.53 417.701 1015.11C421.061 1013.72 422.823 1010.86 421.916 1007.27C420.518 1001.76 416.626 1000.36 410.225 1002.75ZM444.046 1056.18C440.652 1059.84 440.229 1063.56 444.221 1066.98C446.994 1069.35 450.179 1069.08 453.117 1067.17C455.77 1065.45 457.271 1062.92 455.875 1059.8C453.761 1055.08 450.338 1052.84 444.046 1056.18ZM369.321 1036.62C367.823 1041.08 367.859 1045.15 373.15 1046.89C376.486 1047.98 379.533 1046.97 381.666 1043.91C383.688 1041.02 382.938 1038.2 380.932 1035.89C377.643 1032.1 373.893 1031.53 369.321 1036.62Z" fill="#1A1A1A"/>
<path d="M516.598 553.216C516.078 543.804 515.665 535.041 515.855 526.29C516.003 519.509 513.004 517.065 506.484 517.152C491.549 517.351 476.603 517.443 461.672 517.098C453.497 516.91 450.245 519.579 450.431 528.344C450.974 553.988 450.033 579.672 450.907 605.297C451.316 617.294 445.378 623.698 436.699 629.427C432.547 626.683 433.898 622.756 433.887 619.447C433.781 586.647 433.781 553.847 433.861 521.047C433.898 505.918 439.018 500.857 454.562 500.742C471.772 500.616 488.989 500.584 506.194 500.93C513.232 501.072 516.061 498.596 516.034 491.374C515.854 443.312 515.911 395.248 515.996 347.186C516.004 342.643 514.699 338.999 511.305 335.97C508.157 333.161 505.571 329.542 502.07 327.34C485.212 316.738 481.702 301.503 482.43 282.439C483.793 246.769 482.794 211.009 482.784 175.286C482.783 172.688 482.853 170.091 482.85 167.493C482.845 162.492 484.77 159.552 490.316 159.575C495.648 159.598 496.891 162.797 496.95 167.159C497.037 173.653 497.094 180.148 497.091 186.643C497.077 220.742 497.911 254.874 496.615 288.924C496.036 304.143 503.544 311.893 514.508 319.379C516.646 315.185 515.794 311.257 515.798 307.491C515.849 262.026 515.959 216.56 515.656 171.096C515.598 162.51 514.51 154.543 519.425 154.543C521.61 154.543 521.61 154.543 523.794 154.542C525.433 154.542 527.726 155.635 527.726 158.912C527.726 162.189 527.726 160.004 527.726 161.096C527.726 164.373 527.726 172.565 527.726 167.159C527.726 174.203 527.084 208.609 527.726 182.941C527.633 176.387 527.726 194.4 527.249 198.779C526.728 228.269 527.249 206.303 527.249 219.532C525.98 239.661 527.726 231 527.726 240.83C527.726 250.66 527.726 261.583 527.726 271.959C527.726 298.719 527.249 288.924 527.726 300.357C526.163 304.74 531.033 374.067 527.726 377.36C527.726 470.2 527.359 504.153 527.359 542.5C527.359 546.584 522.872 555.566 516.598 553.216Z" fill="#1A1A1A"/>
<path d="M373.208 345.128C381.003 356.525 391.176 364.731 400.244 373.973C417.294 391.352 434.658 408.424 451.992 425.522C454.181 427.682 455.873 430.854 460.861 430.89C461.564 416.918 464.712 403.567 450.901 392.325C437.627 381.518 426.51 368.096 414.067 356.217C408.742 351.133 406.156 345.755 406.452 338.277C406.953 325.634 406.158 312.935 406.813 300.306C407.241 292.041 404.248 286.273 398.483 280.702C385.883 268.525 374.054 255.549 361.413 243.417C356.203 238.416 354.456 232.925 354.477 226.104C354.543 204.028 354.296 181.951 354.392 159.876C354.416 154.359 353.107 150.309 348.544 146.442C338.286 137.749 337.633 124.467 346.101 115.405C354.068 106.88 367.426 106.863 375.675 115.368C384.338 124.302 383.678 136.977 373.466 146.282C369.974 149.464 368.603 152.668 368.626 157.212C368.742 179.288 368.802 201.367 368.524 223.44C368.448 229.456 370.428 233.996 374.574 238.139C387.663 251.219 400.496 264.555 413.648 277.569C417.863 281.74 419.851 286.221 419.728 292.214C419.449 305.826 420.019 319.461 419.565 333.063C419.327 340.187 421.691 345.316 426.758 350.165C441.063 363.856 454.93 378.002 469.128 391.807C473.291 395.855 475.931 400.128 475.863 406.217C475.583 431.213 475.579 456.212 475.442 481.209C475.414 486.29 475.21 491.406 468.094 491.281C464.51 491.219 461.743 489.857 461.386 485.767C461.246 484.153 460.932 482.466 461.228 480.914C465.116 460.523 456.129 446.566 441.294 433.068C415.868 409.934 392.459 384.596 367.852 360.542C362.026 354.847 359.397 348.964 359.71 340.834C360.148 329.481 361.479 318.372 351.013 308.859C343.368 301.909 346.719 287.565 354.877 281.07C363.348 274.325 374.912 274.935 382.304 282.516C389.768 290.173 391.705 304.471 383.147 310.555C369.892 319.98 373.065 332.174 373.208 345.128ZM372.751 293.725C369.962 290.198 366.739 289.024 363.041 292.291C360.63 294.421 360.309 297.328 361.407 300.165C362.62 303.296 365.407 304.202 368.45 303.623C373.306 302.699 374.19 299.277 372.751 293.725ZM359.84 123.58C355.609 124.803 352.718 127.132 354.306 131.955C355.314 135.013 357.956 136.46 361.224 136.136C364.458 135.815 366.728 134.023 367.212 130.746C367.869 126.296 365.325 124.212 359.84 123.58Z" fill="#1A1A1A"/>
<path d="M427.338 268.574C411.786 257.363 405.64 243.187 408.208 224.533C409.797 212.986 408.951 202.104 398.232 193.009C389.811 185.865 392.611 171.404 401.234 164.539C409.789 157.727 422.106 158.751 429.391 166.881C436.982 175.352 437.472 188.797 428.93 195.825C422.88 200.803 422.158 206.196 421.128 213.215C417.816 235.771 425.289 253.012 443.756 265.795C455.911 274.208 460.864 285.597 458.351 300.139C453.911 325.83 461.879 346.342 483.47 361.373C498.802 372.046 503.025 386.671 501.882 405.121C500.317 430.363 501.454 455.771 501.365 481.108C501.35 485.537 502.305 490.962 495.376 491.084C488.201 491.211 488.385 485.905 488.387 480.849C488.399 451.939 488.235 423.027 488.49 394.119C488.546 387.79 486.842 383.058 482.17 378.672C472.701 369.785 464.212 359.805 454.381 351.367C446.263 344.399 444.142 336.15 444.747 326.3C445.086 320.793 444.554 315.166 445.476 309.775C448.481 292.213 442.365 278.871 427.338 268.574ZM418.951 185.388C422.031 182.274 421.912 179.161 418.704 176.304C416.323 174.183 413.549 173.752 410.805 175.64C408.141 177.473 407.017 180.237 408.226 183.179C410.108 187.756 413.894 187.608 418.951 185.388Z" fill="#1A1A1A"/>
<path d="M397.978 1037.52C397.031 1050.14 391.222 1057.4 381.33 1059.18C371.763 1060.9 363.089 1056.54 358.739 1047.84C354.492 1039.33 356.292 1029.99 364.996 1022.61C369.758 1018.58 370.028 1014.02 370.02 1008.78C369.959 971.147 370.178 933.512 369.735 895.885C369.624 886.427 373.576 880.783 381.216 876.576C385.494 879.842 383.912 884.069 383.931 887.679C384.139 927.581 384.261 967.484 384.185 1007.39C384.172 1014.17 384.801 1019.92 391.191 1024.19C395.239 1026.9 397.291 1031.67 397.978 1037.52ZM380.532 1044.42C384.494 1041.9 385.696 1038.61 382.64 1034.75C380.709 1032.3 377.894 1031.32 374.85 1032.74C371.938 1034.11 370.346 1036.59 370.93 1039.79C371.779 1044.46 374.721 1046.25 380.532 1044.42Z" fill="#1A1A1A"/>
<path d="M482.743 1015.73C482.757 999.831 482.672 984.903 482.844 969.979C482.9 965.145 481.633 961.657 477.739 958.213C468.113 949.698 467.856 935.504 476.435 927.09C484.289 919.389 497.644 919.57 505.41 927.483C513.853 936.086 513.116 950.012 502.801 958.248C497.666 962.348 496.927 966.912 496.948 972.629C497.071 1007.67 497.051 1042.72 497.077 1077.76C497.078 1080.36 497.13 1082.95 497.036 1085.55C496.849 1090.73 497.565 1096.42 489.444 1096.19C481.851 1095.98 482.768 1090.62 482.759 1085.82C482.716 1062.78 482.742 1039.74 482.743 1015.73ZM492.644 935.991C488.063 934.596 485.114 936.34 484.075 940.876C483.44 943.649 484.871 945.771 487.286 947.253C489.83 948.814 492.269 948.575 494.255 946.517C497.491 943.165 497.384 939.756 492.644 935.991Z" fill="#1A1A1A"/>
<path d="M310.343 712.054C297.333 722.487 284.316 721.544 277.169 710.292C272.177 702.432 273.074 691.761 279.294 685.018C285.706 678.065 296.213 675.596 304.046 681.37C311.91 687.167 316.257 684.687 321.92 678.67C338.376 661.187 355.419 644.258 371.965 626.858C376.785 621.789 381.909 619.153 389.04 619.538C398.103 620.028 407.208 619.763 416.295 619.756C421.083 619.752 423.359 621.912 423.429 626.827C423.5 631.828 421.139 633.913 416.38 633.896C408.916 633.869 401.423 634.286 393.995 633.765C386.539 633.241 381.291 635.852 376.164 641.318C359.739 658.83 343.092 676.167 325.812 692.825C319.903 698.52 312.649 702.653 310.343 712.054ZM299.599 702.885C302.449 698.637 300.661 695.552 296.805 693.506C294.147 692.096 291.187 692.214 288.955 694.723C287.103 696.805 286.471 699.358 287.995 701.765C290.7 706.036 294.398 706.577 299.599 702.885Z" fill="#1A1A1A"/>
<path d="M455.521 873.077C444.914 883.621 435.131 894.051 424.551 903.597C417.707 909.773 414.234 916.432 415.338 925.693C415.871 930.159 415.354 934.759 415.204 939.294C415.083 942.976 413.556 945.525 409.445 945.671C405.513 945.811 401.584 944.787 401.608 940.358C401.69 924.772 397.043 909.234 412.477 895.772C436.121 875.148 457.234 851.633 479.629 829.556C484.584 824.671 487.151 819.562 486.78 812.431C486.258 802.406 487.177 792.294 486.46 782.293C485.764 772.586 490.744 767.478 498.044 763.429C501.787 765.666 500.948 768.873 500.959 771.624C501.017 787.188 500.829 802.753 500.942 818.316C500.982 823.82 499.432 828.355 495.503 832.317C482.262 845.666 469.161 859.154 455.521 873.077Z" fill="#1A1A1A"/>
<path d="M301.66 668.041C288.76 661.112 284.542 651.811 288.689 640.722C292.318 631.022 302.377 626.25 314.476 629.592C319.723 631.042 323.027 629.92 326.487 626.305C335.224 617.174 344.268 608.334 352.929 599.133C357.45 594.329 362.453 592.022 369.2 592.199C384.101 592.59 399.017 592.396 413.927 592.395C419.255 592.394 423.666 593.037 423.338 600.179C423.017 607.171 418.101 606.49 413.632 606.515C400.019 606.589 386.403 606.656 372.793 606.448C367.232 606.363 362.933 607.972 359.101 612.214C352.807 619.182 345.939 625.63 339.384 632.366C333.373 638.543 327.335 643.91 327.065 654.285C326.798 664.557 314.946 670.221 301.66 668.041ZM305.423 654.76C309.923 655.093 313.036 653.532 313.207 648.577C313.304 645.745 311.776 643.732 309.061 642.766C306.33 641.794 303.801 642.436 302.202 644.712C299.63 648.373 299.657 651.87 305.423 654.76Z" fill="#1A1A1A"/>
<path d="M359.724 938.643C360.593 946.764 357.994 953.052 352.202 957.311C346.477 961.521 345.369 966.766 345.416 973.338C345.619 1002.19 345.491 1031.05 345.416 1059.9C345.406 1063.72 346.095 1067.68 343.921 1071.47C335.426 1072.54 332.328 1068.78 332.389 1060.49C332.606 1030.99 332.357 1001.48 332.5 971.98C332.528 966.174 331.653 961.583 326.558 957.631C319.595 952.229 316.924 944.622 320.161 935.952C323.159 927.923 333.867 920.49 341.163 920.87C350.461 921.355 356.479 926.929 359.724 938.643ZM334.731 946.522C338.708 949.403 342.026 948.374 344.636 944.617C346.658 941.707 345.563 939.016 343.274 936.837C340.987 934.662 338.186 933.771 335.359 935.678C331.424 938.332 330.922 941.753 334.731 946.522Z" fill="#1A1A1A"/>
<path d="M423.75 1036.54C424.019 1046.59 423.488 1055.15 415.339 1061.9C409.732 1066.54 412.245 1074.03 411.846 1080.37C411.584 1084.53 412.386 1089.34 405.975 1089.41C399.758 1089.47 398.68 1085.47 398.735 1080.33C398.857 1068.8 397.122 1057.3 407.937 1048.24C413.737 1043.38 410.958 1030.12 404.684 1023.98C393.907 1013.44 394.051 997.655 404.99 990.394C414.27 984.235 425.929 985.959 432.929 994.524C439.554 1002.63 439.238 1014.3 431.349 1021.82C427.151 1025.83 423.798 1029.7 423.75 1036.54ZM417.383 1001.08C413.11 1000.87 410.415 1003.07 410.237 1007.13C410.1 1010.26 412.449 1012.41 415.605 1013.07C418.769 1013.74 421.575 1012.73 422.919 1009.77C424.863 1005.5 421.976 1003.26 417.383 1001.08Z" fill="#1A1A1A"/>
<path d="M319.079 586.682C332.19 567.677 349.558 563.215 371.136 566.111C385.104 567.986 399.602 565.862 413.864 565.625C419.282 565.535 424.775 565.715 424.491 573.414C424.212 580.995 418.41 579.665 413.757 579.685C394.292 579.766 374.818 580.029 355.365 579.528C347.48 579.324 341.677 581.918 336.582 587.573C332.463 592.144 327.719 596.148 323.58 600.702C312.741 612.632 299.672 608.238 286.396 607.19C286.948 598.283 290.484 593.862 298.608 594.537C306.495 595.193 313.439 593.775 319.079 586.682Z" fill="#1A1A1A"/>
<path d="M413.202 475.643C405.788 468.288 400.175 460.872 388.086 460.94C377.067 461.002 369.809 448.412 371.731 437.516C373.724 426.22 383.729 419.104 395.238 420.798C406.516 422.458 415.704 433.506 412.847 444.559C410.618 453.179 414.038 457.953 419.352 463.137C425.607 469.24 431.597 475.615 437.669 481.904C440.453 484.787 441.673 487.704 438.149 491.077C434.961 494.128 431.861 494.216 428.795 491.238C423.687 486.277 418.715 481.176 413.202 475.643ZM393.667 434.604C388.735 433.549 386.283 436.536 385.303 440.539C384.536 443.675 386.616 446.202 389.523 447.374C392.545 448.592 395.374 447.61 397.201 444.945C399.935 440.954 398.793 437.664 393.667 434.604Z" fill="#1A1A1A"/>
<path d="M361.845 505.588C354.495 495.118 354.138 486.05 360.249 478.354C365.859 471.289 376.376 468.719 384.877 472.336C393.614 476.052 398.407 485.66 396.902 496.441C395.545 506.169 400.165 511.712 410.047 512.137C413.278 512.276 416.516 512.243 419.749 512.349C423.83 512.483 425.281 514.866 425.326 518.693C425.37 522.491 424.15 525.12 419.938 525.059C408.64 524.898 396.295 528.433 388.556 515.778C386.365 512.195 382.539 511.175 378.335 511.6C372.215 512.219 366.804 510.589 361.845 505.588ZM380.411 496.488C384.052 493.258 384.05 489.75 380.822 486.373C378.488 483.932 375.604 483.97 372.845 485.806C370.18 487.58 368.485 490.168 369.838 493.253C371.591 497.25 374.669 499.337 380.411 496.488Z" fill="#1A1A1A"/>
<path d="M293.225 992.756C297.07 984.428 295.269 976.246 295.187 968.302C295.1 959.82 299.525 955.63 308.411 950.559C308.411 963.193 308.466 973.659 308.384 984.125C308.35 988.472 309.031 991.877 312.987 995C323.984 1003.68 325.144 1018.18 316.214 1027.06C307.9 1035.32 294.547 1035.09 286.722 1026.56C278.295 1017.37 280.259 1002.9 291.094 994.39C291.601 993.992 292.164 993.664 293.225 992.756ZM307.178 1016.46C309.966 1012.77 308.873 1009.66 305.356 1007.46C302.391 1005.61 299.057 1005.63 296.442 1008.26C294.104 1010.62 293.954 1013.72 295.898 1016.24C298.731 1019.91 302.416 1019.92 307.178 1016.46Z" fill="#1A1A1A"/>
<path d="M372.323 534.408C376.092 538.546 380.108 539.819 384.991 539.714C395.676 539.483 406.371 539.713 417.061 539.648C422.113 539.618 425.013 541.485 424.992 546.997C424.971 552.504 421.192 553.334 417.15 553.407C404.52 553.635 391.886 553.639 379.254 553.692C374.419 553.712 370.553 551.552 367.239 548.179C357.021 537.781 346.849 527.338 336.52 517.052C332.715 513.261 331.574 509.621 335.545 505.324C340.311 500.167 343.165 505.056 345.839 507.652C354.668 516.222 363.171 525.128 372.323 534.408Z" fill="#1A1A1A"/>
<path d="M259.348 741.882C270.516 728.185 282.85 727.681 294.033 740.324C297.033 743.715 300.245 744.406 304.248 744.634C308.962 744.904 313.915 743.428 319.12 746.469C315.287 752.765 311.706 758.676 303.35 758.639C299.452 758.622 296.901 760.319 294.295 763.242C285.959 772.595 276.334 774.638 267.458 769.559C258.3 764.317 255.147 754.285 259.348 741.882ZM281.238 756.648C284.344 753.24 284.585 749.802 280.902 746.756C278.793 745.011 276.173 744.83 273.761 746.3C271.27 747.817 270.629 750.303 271.255 752.965C272.398 757.819 275.76 758.631 281.238 756.648Z" fill="#1A1A1A"/>
<path d="M470.481 232.041C460.481 245.273 449.022 247.54 438.506 239.007C430.08 232.169 428.984 219.199 436.069 210.144C441.92 202.665 451.858 200.248 460.548 204.189C470.485 208.696 473.898 217.703 470.481 232.041ZM455.175 228.823C458.256 226.451 460.228 223.702 457.501 219.912C455.374 216.957 452.273 216.346 448.947 217.355C445.646 218.356 444.415 220.986 445.17 224.119C446.25 228.608 449.461 230.169 455.175 228.823Z" fill="#1A1A1A"/>
<path d="M356.967 698.738C358.895 702.174 361.539 704.143 364.659 704.981L311.878 755.684C309.921 757.564 306.809 757.501 304.928 755.544C303.048 753.586 303.11 750.474 305.068 748.594L356.967 698.738Z" fill="#1A1A1A"/>
<path d="M356.967 698.738C358.895 702.174 361.539 704.143 364.659 704.981L311.878 755.684C309.921 757.564 306.809 757.501 304.928 755.544C303.048 753.586 303.11 750.474 305.068 748.594L356.967 698.738Z" fill="#1A1A1A"/>
<path d="M519.703 542.417C521.661 540.537 524.772 540.599 526.653 542.557C528.533 544.514 528.471 547.626 526.513 549.507L382.008 688.316C381.296 685.908 380.053 683.399 378.237 680.901C377.682 680.53 377.132 680.195 376.588 679.891L519.703 542.417Z" fill="#1A1A1A"/>
<path d="M519.703 542.417C521.661 540.537 524.772 540.599 526.653 542.557C528.533 544.514 528.471 547.626 526.513 549.507L382.008 688.316C381.296 685.908 380.053 683.399 378.237 680.901C377.682 680.53 377.132 680.195 376.588 679.891L519.703 542.417Z" fill="#1A1A1A"/>
<path fill-rule="evenodd" clip-rule="evenodd" d="M359.22 682.526C364.577 676.941 370.925 676.007 378.237 680.901C386.354 692.065 383.055 703.437 371.804 705.201C365.54 706.183 360.163 704.55 356.896 698.614C353.65 692.716 354.823 687.11 359.22 682.526ZM372.752 686.747C369.58 684.628 366.826 685.032 364.502 687.45C362.594 689.436 362.085 691.864 363.493 694.418C364.91 696.989 367.243 697.696 369.961 697.271C374.842 696.507 376.274 691.582 372.752 686.747Z" fill="#1A1A1A"/>
<path fill-rule="evenodd" clip-rule="evenodd" d="M359.22 682.526C364.577 676.941 370.925 676.007 378.237 680.901C386.354 692.065 383.055 703.437 371.804 705.201C365.54 706.183 360.163 704.55 356.896 698.614C353.65 692.716 354.823 687.11 359.22 682.526ZM372.752 686.747C369.58 684.628 366.826 685.032 364.502 687.45C362.594 689.436 362.085 691.864 363.493 694.418C364.91 696.989 367.243 697.696 369.961 697.271C374.842 696.507 376.274 691.582 372.752 686.747Z" fill="#1A1A1A"/>
<path fill-rule="evenodd" clip-rule="evenodd" d="M664.711 105.683C633.342 109.5 616.108 114.486 574.182 131.872C557.477 138.798 537.633 146.768 530.085 149.581L516.359 154.692V536.421L518.545 544.922L525.671 548.222C547.821 525.115 571.475 500.528 578.24 493.587L590.533 480.963L590.178 459.721C589.819 438.458 591.179 419.093 593.599 411.019L594.888 406.721L613.15 405.931C623.195 405.501 649.487 403.83 671.58 402.225C721.819 398.572 717.331 397.128 720.223 417.859C726.852 465.377 740.608 481.952 775.342 484.284C810.701 486.658 830.055 466.599 836.443 420.965C838.192 408.469 839.858 405.202 844.475 405.202C848.79 405.202 850.507 407.866 864.759 436.73C870.943 449.252 878.721 463.966 882.044 469.424C903.303 504.351 901.072 510.279 867.28 508.635C850.827 507.837 850.59 507.861 844.735 510.922C831.99 517.582 821.242 515.516 821.242 506.408C821.242 503.099 818.063 501.703 814.188 503.305C799.077 509.562 810.106 534.125 827.376 532.678C833.087 532.2 830.261 534.226 808.73 546.046C781.177 561.172 777.729 564.096 761.383 586.196C755.919 593.579 748.889 602.424 745.755 605.85L740.055 612.077L725.641 604.941C717.711 601.016 708.357 595.974 704.852 593.732L690.359 586.196L681.859 592C677.008 595.333 675.207 596.332 638.359 636C600.15 677.13 592.859 682.739 592.859 684C592.859 684.735 606.757 697.873 613.022 704.339C636.628 728.711 661.114 744.44 697.074 758.332C721.362 767.715 721.9 769.35 712.08 803.814C703.357 834.427 700.034 849.619 698.306 866.787L696.834 881.407L689.242 874.487C685.067 870.679 670.085 858.775 655.949 848.032C596.882 803.129 542.358 744.776 534.594 724.5C523.859 726.5 511.359 736.5 504.859 746.5L519.864 772.405V1121L901.26 1120.96L905.821 1118.35C915.952 1112.56 917.22 1106.18 917.45 1059.7C917.992 950.998 883.073 887.233 780.94 810.411C770.019 802.194 759.313 793.955 757.154 792.099L753.222 788.727L755.339 781.167C756.502 777.012 758.345 771.26 759.43 768.391L761.404 763.171L785.19 763.515C839.074 764.292 864.816 752.993 880.567 721.647C889.451 703.959 889.795 699.846 887.133 642.828C886.535 630.034 886.9 624.366 889.46 606.789C894.346 573.249 893.584 564.359 883.47 536.98L878.877 524.547L886.565 524.102C906.646 522.939 915.492 509.663 909.448 489.752C908.491 486.601 907.705 483.94 907.696 483.839C907.69 483.74 910.51 482.066 913.967 480.117C928.048 472.171 934.475 458.256 938.701 426.567C940.441 413.533 941.057 411.312 943.527 409.193C946.891 406.308 948.584 395.579 946.338 391.383C943.632 386.328 923.769 379.264 907.857 377.697C901.129 377.034 899.508 376.493 899.508 374.905C899.508 373.82 897.184 365.002 894.343 355.308C891.503 345.61 886.996 327.519 884.328 315.098C877.977 285.54 874.092 274.055 863.132 252.413L854.056 234.492L857.453 228.474C877.552 192.872 877.391 159.601 857.029 141.686C829.239 117.23 727.023 98.0958 664.711 105.683ZM764.816 231.15C727.72 224.484 705.07 220.977 682.157 218.362C671.129 217.1 652.624 215.713 641.036 215.28L619.965 214.487L623.162 219.641C638.497 244.336 647.268 273.144 647.253 298.774C647.241 325.394 642.462 336.194 620.821 358.494C615.525 363.953 609.005 371.572 606.338 375.426L601.484 382.43L610.611 382.815C619.929 383.207 643.838 381.886 682.035 378.866C693.808 377.937 706.727 377.177 710.74 377.177C716.918 377.177 718.44 376.75 720.65 374.397C739.666 354.163 816.266 357.804 830.223 379.605C836.099 388.785 836.676 389.215 841.395 387.915C844.502 387.057 847.735 387.141 852.956 388.217L860.202 389.711L862.944 386.453C866.141 382.657 876.535 377.177 880.54 377.177C882.621 377.177 883.165 376.669 882.729 375.133C882.409 374.009 881.538 369.937 880.794 366.084C880.049 362.231 876.625 350.408 873.183 339.811C869.738 329.214 865.578 315.188 863.937 308.642C857.11 281.418 837.489 234.779 833.506 236.306C824.825 239.639 802.899 237.992 764.816 231.15ZM815.196 392.767C811.996 389.302 800.647 384.4 791.182 382.394C768.057 377.497 743.721 383.53 738.763 395.391C735.267 403.755 737.552 438.398 742.358 449.892C751.482 471.72 788.996 478.467 806.048 461.347C819.4 447.94 825.3 403.707 815.196 392.767ZM925.791 402.282L921.117 399.95C917.289 398.037 913.545 397.543 900.384 397.209L884.322 396.802L884.296 400.126C884.26 404.9 880.575 412.344 875.432 418.032L870.985 422.953L874.714 430.133C881.891 443.955 899.206 469.998 901.431 470.321C914.05 472.142 927.43 439.74 926.147 410.454L925.791 402.282ZM868.919 584.844C866.147 585.009 860.034 584.327 855.333 583.332C840.668 580.229 823.697 581.571 804.693 587.34C791.317 591.403 788.357 595.944 782.394 621.544L779.463 634.12L786.514 640.502C802.142 654.639 827.083 657.045 827.083 644.418C827.083 640.341 825.821 637.719 820.474 630.691C812.929 620.776 816.084 615.012 831.296 610.911C846.954 606.687 865.136 607.775 870.229 613.237C873.174 616.399 876.156 607.494 876.126 595.615C876.105 585.726 875.261 584.471 868.919 584.844Z" fill="#1A1A1A"/>
<path fill-rule="evenodd" clip-rule="evenodd" d="M664.711 105.683C633.342 109.5 616.108 114.486 574.182 131.872C557.477 138.798 537.633 146.768 530.085 149.581L516.359 154.692V536.421L518.545 544.922L525.671 548.222C547.821 525.115 571.475 500.528 578.24 493.587L590.533 480.963L590.178 459.721C589.819 438.458 591.179 419.093 593.599 411.019L594.888 406.721L613.15 405.931C623.195 405.501 649.487 403.83 671.58 402.225C721.819 398.572 717.331 397.128 720.223 417.859C726.852 465.377 740.608 481.952 775.342 484.284C810.701 486.658 830.055 466.599 836.443 420.965C838.192 408.469 839.858 405.202 844.475 405.202C848.79 405.202 850.507 407.866 864.759 436.73C870.943 449.252 878.721 463.966 882.044 469.424C903.303 504.351 901.072 510.279 867.28 508.635C850.827 507.837 850.59 507.861 844.735 510.922C831.99 517.582 821.242 515.516 821.242 506.408C821.242 503.099 818.063 501.703 814.188 503.305C799.077 509.562 810.106 534.125 827.376 532.678C833.087 532.2 830.261 534.226 808.73 546.046C781.177 561.172 777.729 564.096 761.383 586.196C755.919 593.579 748.889 602.424 745.755 605.85L740.055 612.077L725.641 604.941C717.711 601.016 708.357 595.974 704.852 593.732L690.359 586.196L681.859 592C677.008 595.333 675.207 596.332 638.359 636C600.15 677.13 592.859 682.739 592.859 684C592.859 684.735 606.757 697.873 613.022 704.339C636.628 728.711 661.114 744.44 697.074 758.332C721.362 767.715 721.9 769.35 712.08 803.814C703.357 834.427 700.034 849.619 698.306 866.787L696.834 881.407L689.242 874.487C685.067 870.679 670.085 858.775 655.949 848.032C596.882 803.129 542.358 744.776 534.594 724.5C523.859 726.5 511.359 736.5 504.859 746.5L519.864 772.405V1121L901.26 1120.96L905.821 1118.35C915.952 1112.56 917.22 1106.18 917.45 1059.7C917.992 950.998 883.073 887.233 780.94 810.411C770.019 802.194 759.313 793.955 757.154 792.099L753.222 788.727L755.339 781.167C756.502 777.012 758.345 771.26 759.43 768.391L761.404 763.171L785.19 763.515C839.074 764.292 864.816 752.993 880.567 721.647C889.451 703.959 889.795 699.846 887.133 642.828C886.535 630.034 886.9 624.366 889.46 606.789C894.346 573.249 893.584 564.359 883.47 536.98L878.877 524.547L886.565 524.102C906.646 522.939 915.492 509.663 909.448 489.752C908.491 486.601 907.705 483.94 907.696 483.839C907.69 483.74 910.51 482.066 913.967 480.117C928.048 472.171 934.475 458.256 938.701 426.567C940.441 413.533 941.057 411.312 943.527 409.193C946.891 406.308 948.584 395.579 946.338 391.383C943.632 386.328 923.769 379.264 907.857 377.697C901.129 377.034 899.508 376.493 899.508 374.905C899.508 373.82 897.184 365.002 894.343 355.308C891.503 345.61 886.996 327.519 884.328 315.098C877.977 285.54 874.092 274.055 863.132 252.413L854.056 234.492L857.453 228.474C877.552 192.872 877.391 159.601 857.029 141.686C829.239 117.23 727.023 98.0958 664.711 105.683ZM764.816 231.15C727.72 224.484 705.07 220.977 682.157 218.362C671.129 217.1 652.624 215.713 641.036 215.28L619.965 214.487L623.162 219.641C638.497 244.336 647.268 273.144 647.253 298.774C647.241 325.394 642.462 336.194 620.821 358.494C615.525 363.953 609.005 371.572 606.338 375.426L601.484 382.43L610.611 382.815C619.929 383.207 643.838 381.886 682.035 378.866C693.808 377.937 706.727 377.177 710.74 377.177C716.918 377.177 718.44 376.75 720.65 374.397C739.666 354.163 816.266 357.804 830.223 379.605C836.099 388.785 836.676 389.215 841.395 387.915C844.502 387.057 847.735 387.141 852.956 388.217L860.202 389.711L862.944 386.453C866.141 382.657 876.535 377.177 880.54 377.177C882.621 377.177 883.165 376.669 882.729 375.133C882.409 374.009 881.538 369.937 880.794 366.084C880.049 362.231 876.625 350.408 873.183 339.811C869.738 329.214 865.578 315.188 863.937 308.642C857.11 281.418 837.489 234.779 833.506 236.306C824.825 239.639 802.899 237.992 764.816 231.15ZM815.196 392.767C811.996 389.302 800.647 384.4 791.182 382.394C768.057 377.497 743.721 383.53 738.763 395.391C735.267 403.755 737.552 438.398 742.358 449.892C751.482 471.72 788.996 478.467 806.048 461.347C819.4 447.94 825.3 403.707 815.196 392.767ZM925.791 402.282L921.117 399.95C917.289 398.037 913.545 397.543 900.384 397.209L884.322 396.802L884.296 400.126C884.26 404.9 880.575 412.344 875.432 418.032L870.985 422.953L874.714 430.133C881.891 443.955 899.206 469.998 901.431 470.321C914.05 472.142 927.43 439.74 926.147 410.454L925.791 402.282ZM868.919 584.844C866.147 585.009 860.034 584.327 855.333 583.332C840.668 580.229 823.697 581.571 804.693 587.34C791.317 591.403 788.357 595.944 782.394 621.544L779.463 634.12L786.514 640.502C802.142 654.639 827.083 657.045 827.083 644.418C827.083 640.341 825.821 637.719 820.474 630.691C812.929 620.776 816.084 615.012 831.296 610.911C846.954 606.687 865.136 607.775 870.229 613.237C873.174 616.399 876.156 607.494 876.126 595.615C876.105 585.726 875.261 584.471 868.919 584.844Z" fill="#1A1A1A"/>
<path d="M238.62 998.774L145.451 905.605L170.398 880.659L263.566 973.827L238.62 998.774Z" fill="#1A1A1A"/>
<path d="M284.79 929.378C279.769 934.399 274.113 937.846 267.821 939.72C261.528 941.461 255.27 941.561 249.044 940.021C242.819 938.482 237.296 935.302 232.477 930.483C227.657 925.663 224.511 920.174 223.038 914.015C221.566 907.857 221.733 901.665 223.54 895.44C225.281 889.147 228.695 883.458 233.782 878.37C238.869 873.283 244.526 869.835 250.751 868.028C256.977 866.221 263.202 866.087 269.427 867.626C275.586 869.099 281.075 872.245 285.894 877.065C290.714 881.885 293.894 887.407 295.433 893.632C296.973 899.858 296.872 906.117 295.132 912.409C293.325 918.634 289.877 924.291 284.79 929.378ZM270.833 915.421C273.042 913.212 274.515 910.802 275.251 908.192C275.92 905.514 275.82 902.87 274.95 900.259C274.08 897.515 272.507 895.005 270.231 892.729C267.955 890.453 265.511 888.947 262.901 888.21C260.223 887.407 257.579 887.374 254.968 888.11C252.358 888.712 249.948 890.118 247.739 892.327C245.597 894.469 244.191 896.879 243.522 899.557C242.785 902.167 242.819 904.811 243.622 907.489C244.425 910.166 245.965 912.643 248.241 914.919C250.45 917.128 252.927 918.668 255.671 919.538C258.349 920.341 261.026 920.408 263.704 919.739C266.315 919.002 268.691 917.563 270.833 915.421ZM346.157 867.81C342.877 871.09 339.229 873.466 335.213 874.939C331.196 876.412 327.213 876.914 323.264 876.445C319.248 875.91 315.666 874.337 312.52 871.726L291.936 851.142C289.326 847.996 287.719 844.381 287.117 840.298C286.514 836.215 286.916 832.131 288.321 828.048C289.727 823.965 292.07 820.283 295.35 817.003C299.969 812.384 305.157 809.405 310.914 808.067C316.737 806.661 322.561 806.862 328.385 808.669C334.275 810.409 339.664 813.723 344.551 818.609C349.437 823.496 352.751 828.885 354.491 834.775C356.298 840.599 356.499 846.423 355.094 852.247C353.755 858.003 350.776 863.191 346.157 867.81ZM337.622 915.504L268.24 846.122L283.602 830.759L296.153 843.31L305.491 857.669L319.649 867.208L352.784 900.343L337.622 915.504ZM329.489 856.765C331.698 854.556 333.104 852.146 333.706 849.536C334.376 846.858 334.309 844.18 333.506 841.503C332.702 838.825 331.196 836.382 328.987 834.173C326.711 831.897 324.234 830.357 321.557 829.554C318.879 828.751 316.235 828.717 313.625 829.454C311.014 830.056 308.638 831.428 306.496 833.57C304.353 835.713 302.948 838.122 302.278 840.8C301.609 843.344 301.676 845.954 302.479 848.632C303.282 851.309 304.822 853.786 307.098 856.062C309.307 858.271 311.717 859.811 314.327 860.681C317.005 861.484 319.683 861.551 322.36 860.882C325.038 860.212 327.414 858.84 329.489 856.765ZM400.953 813.215C395.665 818.503 389.875 822.151 383.582 824.159C377.29 826.034 371.031 826.201 364.806 824.661C358.58 823.122 353.024 819.909 348.138 815.022C343.251 810.136 340.038 804.647 338.499 798.555C336.959 792.33 337.059 786.138 338.8 779.979C340.54 773.821 343.887 768.265 348.841 763.311C353.66 758.492 358.949 755.279 364.705 753.672C370.462 752.066 376.219 752.066 381.976 753.672C387.8 755.212 393.088 758.358 397.84 763.111C398.711 763.981 399.581 764.985 400.451 766.123C401.321 767.127 402.258 768.399 403.263 769.938L361.291 812.11L350.749 801.567L386.193 765.922L383.984 776.967C381.106 774.223 378.361 772.348 375.75 771.344C373.073 770.273 370.462 770.072 367.918 770.742C365.375 771.277 362.965 772.683 360.689 774.959C358.279 777.369 356.74 780.046 356.07 782.992C355.401 785.803 355.568 788.715 356.572 791.727C357.643 794.673 359.618 797.584 362.496 800.463C365.375 803.341 368.354 805.316 371.433 806.387C374.512 807.324 377.558 807.425 380.57 806.688C383.582 805.818 386.394 804.078 389.004 801.467C391.414 799.057 393.188 796.48 394.326 793.735C395.397 790.924 395.832 787.945 395.631 784.799L412.5 784.799C412.902 790.02 412.099 795.041 410.09 799.86C408.082 804.68 405.036 809.132 400.953 813.215ZM448.733 765.636C445.855 768.514 442.641 770.991 439.094 773.066C435.613 775.074 431.998 776.614 428.249 777.685C424.501 778.622 420.886 779.024 417.405 778.89L417.305 761.318C420.652 761.452 423.932 760.917 427.145 759.712C430.291 758.44 433.17 756.499 435.78 753.888C437.588 752.081 438.692 750.441 439.094 748.968C439.562 747.428 439.328 746.19 438.391 745.253C437.186 744.048 435.68 743.747 433.872 744.349C432.065 744.818 430.023 745.721 427.747 747.06C425.405 748.332 422.928 749.671 420.317 751.076C417.707 752.482 414.962 753.553 412.084 754.29C409.205 755.026 406.26 755.026 403.248 754.29C400.168 753.486 397.156 751.612 394.211 748.667C391.065 745.521 389.157 742.006 388.487 738.124C387.751 734.174 388.186 730.057 389.793 725.773C391.399 721.489 394.177 717.372 398.127 713.423C402.277 709.273 406.829 706.194 411.782 704.185C416.736 702.043 421.723 701.274 426.743 701.876L426.844 719.448C423.497 719.18 420.485 719.648 417.807 720.853C415.196 721.991 412.987 723.464 411.18 725.271C409.44 727.012 408.402 728.585 408.067 729.991C407.666 731.329 407.933 732.467 408.871 733.404C409.875 734.409 411.247 734.643 412.987 734.107C414.728 733.572 416.736 732.635 419.012 731.296C421.288 729.957 423.765 728.618 426.442 727.28C429.12 725.941 431.931 724.937 434.876 724.267C437.822 723.598 440.834 723.665 443.913 724.468C446.926 725.204 449.971 727.112 453.051 730.191C457.803 734.944 459.778 740.534 458.975 746.96C458.238 753.319 454.824 759.544 448.733 765.636ZM554.135 657.824L485.154 588.843L500.517 573.48L569.498 642.461L554.135 657.824ZM507.344 633.123L494.291 620.07L531.744 582.617L544.797 595.671L507.344 633.123ZM610.53 603.638C605.242 608.926 599.451 612.575 593.159 614.583C586.867 616.457 580.608 616.624 574.382 615.085C568.157 613.545 562.601 610.332 557.715 605.446C552.828 600.559 549.615 595.07 548.075 588.978C546.536 582.753 546.636 576.561 548.376 570.403C550.117 564.244 553.464 558.688 558.417 553.735C563.237 548.915 568.525 545.702 574.282 544.096C580.039 542.489 585.796 542.489 591.552 544.096C597.376 545.635 602.664 548.781 607.417 553.534C608.287 554.404 609.158 555.408 610.028 556.546C610.898 557.55 611.835 558.822 612.839 560.362L570.868 602.534L560.325 591.991L595.77 556.345L593.561 567.39C590.682 564.646 587.938 562.772 585.327 561.768C582.649 560.697 580.039 560.496 577.495 561.165C574.951 561.701 572.542 563.106 570.266 565.382C567.856 567.792 566.316 570.47 565.647 573.415C564.977 576.226 565.145 579.138 566.149 582.151C567.22 585.096 569.195 588.008 572.073 590.886C574.951 593.765 577.93 595.739 581.009 596.81C584.089 597.748 587.134 597.848 590.147 597.112C593.159 596.241 595.97 594.501 598.581 591.89C600.991 589.48 602.765 586.903 603.903 584.159C604.974 581.347 605.409 578.369 605.208 575.222L622.077 575.222C622.478 580.444 621.675 585.464 619.667 590.284C617.659 595.103 614.613 599.555 610.53 603.638ZM664.033 550.135C659.012 555.155 653.356 558.603 647.064 560.477C640.771 562.351 634.513 562.519 628.287 560.979C622.062 559.44 616.539 556.26 611.72 551.44C606.833 546.554 603.654 541.031 602.181 534.873C600.708 528.581 600.909 522.288 602.783 515.996C604.658 509.704 608.139 504.014 613.226 498.926C617.041 495.111 621.192 492.299 625.677 490.492C630.162 488.551 634.948 487.647 640.035 487.781L640.035 507.461C637.625 507.327 635.349 507.729 633.207 508.666C631.132 509.536 629.124 510.942 627.183 512.883C624.974 515.092 623.501 517.569 622.765 520.313C622.028 522.924 622.028 525.602 622.765 528.346C623.501 530.957 625.007 533.4 627.283 535.676C629.559 537.952 632.036 539.492 634.713 540.295C637.458 541.031 640.202 541.031 642.947 540.295C645.692 539.559 648.135 538.119 650.277 535.977C652.285 533.969 653.724 531.861 654.594 529.652C655.465 527.309 655.833 524.932 655.699 522.522L675.279 522.623C675.413 527.844 674.576 532.764 672.769 537.383C670.894 541.935 667.982 546.186 664.033 550.135ZM720.372 491.587L692.559 463.774C690.015 461.23 687.17 459.992 684.024 460.059C680.878 459.992 678.1 461.163 675.69 463.573C674.016 465.246 672.912 467.087 672.376 469.095C671.774 471.037 671.774 473.045 672.376 475.12C672.912 477.128 674.016 478.969 675.69 480.642L666.854 483.655C663.038 479.839 660.495 475.689 659.223 471.204C657.951 466.719 657.984 462.268 659.323 457.85C660.595 453.365 663.105 449.248 666.854 445.499C670.669 441.684 674.82 439.14 679.305 437.868C683.723 436.529 688.107 436.496 692.458 437.768C696.809 438.906 700.826 441.316 704.507 444.997L735.735 476.224L720.372 491.587ZM688.141 523.818L615.244 450.921L630.606 435.559L703.503 508.456L688.141 523.818Z" fill="#1A1A1A"/>
<path d="M476.795 752.027L478.326 679.494C478.397 676.609 478.288 674.145 477.998 672.101C477.713 669.887 477.207 668.05 476.479 666.589C475.838 665.045 474.938 663.665 473.78 662.448C470.884 659.406 467.609 657.968 463.955 658.132C460.306 658.127 456.829 659.697 453.527 662.841C450.572 665.654 448.702 669.173 447.919 673.398C447.054 677.535 447.214 683.099 448.4 690.088L416.931 690.969C414.963 681.244 415.489 671.963 418.507 663.125C421.613 654.204 427.033 646.062 434.769 638.698C441.809 631.996 449.049 627.506 456.49 625.228C463.934 622.78 471.196 622.577 478.276 624.618C485.442 626.577 492.046 630.729 498.086 637.074C501.478 640.637 504.185 644.439 506.208 648.478C508.23 652.517 509.647 657.05 510.456 662.078C511.184 667.019 511.385 672.626 511.061 678.899L508.823 723.278L476.795 752.027ZM490.075 765.977L476.795 752.027L491.363 723.994L540.252 677.453L560.606 698.834L490.075 765.977Z" fill="#1A1A1A"/>
</svg>
